REM DIRINDEX 1\2\3,1\2\4,1\2\5,1\2\6
REM DIRNAME folder01,folder02,folder03,folder04,folder05,folder06
TITLE ""
FILE "053 053.mp3" MP3
  TRACK 01 AUDIO
    TITLE "0:"
    INDEX 01 00:00:00
  TRACK 02 AUDIO
    TITLE "3:cjc157_2011"
    INDEX 01 00:00:11
  TRACK 03 AUDIO
    TITLE "0:"
    INDEX 01 00:01:46
  TRACK 04 AUDIO
    TITLE "4:cjc157_2012"
    INDEX 01 00:02:18
  TRACK 05 AUDIO
    TITLE "0:"
    INDEX 01 00:03:31
  TRACK 06 AUDIO
    TITLE "5:cjc157_2013"
    INDEX 01 00:04:01
  TRACK 07 AUDIO
    TITLE "0:"
    INDEX 01 00:05:54
  TRACK 08 AUDIO
    TITLE "3:cjc157_2014"
    INDEX 01 00:06:24
  TRACK 09 AUDIO
    TITLE "0:"
    INDEX 01 00:07:25
  TRACK 10 AUDIO
    TITLE "4:cjc157_2015"
    INDEX 01 00:07:68
  TRACK 11 AUDIO
    TITLE "0:"
    INDEX 01 00:09:08
  TRACK 12 AUDIO
    TITLE "5:cjc157_2016"
    INDEX 01 00:09:57
  TRACK 13 AUDIO
    TITLE "0:"
    INDEX 01 00:13:20
  TRACK 14 AUDIO
    TITLE "5:cjc157_2017"
    INDEX 01 00:13:65
  TRACK 15 AUDIO
    TITLE "0:"
    INDEX 01 00:16:44
  TRACK 16 AUDIO
    TITLE "3:cjc157_2018"
    INDEX 01 00:17:12
  TRACK 17 AUDIO
    TITLE "0:"
    INDEX 01 00:18:46
  TRACK 18 AUDIO
    TITLE "4:cjc157_2019"
    INDEX 01 00:19:18
  TRACK 19 AUDIO
    TITLE "0:"
    INDEX 01 00:20:06
  TRACK 20 AUDIO
    TITLE "5:cjc157_2020"
    INDEX 01 00:20:57
  TRACK 21 AUDIO
    TITLE "0:"
    INDEX 01 00:23:26
  TRACK 22 AUDIO
    TITLE "5:cjc157_2021"
    INDEX 01 00:23:71
  TRACK 23 AUDIO
    TITLE "0:"
    INDEX 01 00:26:36
  TRACK 24 AUDIO
    TITLE "3:cjc157_2022"
    INDEX 01 00:27:06
  TRACK 25 AUDIO
    TITLE "0:"
    INDEX 01 00:28:43
  TRACK 26 AUDIO
    TITLE "4:cjc157_2023"
    INDEX 01 00:29:11
  TRACK 27 AUDIO
    TITLE "0:"
    INDEX 01 00:30:42
  TRACK 28 AUDIO
    TITLE "5:cjc157_2024"
    INDEX 01 00:31:12
  TRACK 29 AUDIO
    TITLE "0:"
    INDEX 01 00:33:50
  TRACK 30 AUDIO
    TITLE "3:cjc157_2025"
    INDEX 01 00:34:14
  TRACK 31 AUDIO
    TITLE "0:"
    INDEX 01 00:35:41
  TRACK 32 AUDIO
    TITLE "4:cjc157_2026"
    INDEX 01 00:36:11
  TRACK 33 AUDIO
    TITLE "0:"
    INDEX 01 00:37:32
  TRACK 34 AUDIO
    TITLE "5:cjc157_2027"
    INDEX 01 00:38:04
  TRACK 35 AUDIO
    TITLE "0:"
    INDEX 01 00:41:00
  TRACK 36 AUDIO
    TITLE "5:cjc157_2028"
    INDEX 01 00:41:47
  TRACK 37 AUDIO
    TITLE "0:"
    INDEX 01 00:44:03
  TRACK 38 AUDIO
    TITLE "3:cjc157_2029"
    INDEX 01 00:44:48
  TRACK 39 AUDIO
    TITLE "0:"
    INDEX 01 00:45:69
  TRACK 40 AUDIO
    TITLE "4:cjc157_2030"
    INDEX 01 00:46:43
  TRACK 41 AUDIO
    TITLE "0:"
    INDEX 01 00:47:44
  TRACK 42 AUDIO
    TITLE "5:cjc157_2031"
    INDEX 01 00:48:16
  TRACK 43 AUDIO
    TITLE "0:"
    INDEX 01 00:51:26
  TRACK 44 AUDIO
    TITLE "3:cjc157_2032"
    INDEX 01 00:51:71
  TRACK 45 AUDIO
    TITLE "0:"
    INDEX 01 00:53:17
  TRACK 46 AUDIO
    TITLE "4:cjc157_2033"
    INDEX 01 00:53:60
  TRACK 47 AUDIO
    TITLE "0:"
    INDEX 01 00:54:60
  TRACK 48 AUDIO
    TITLE "5:cjc157_2034"
    INDEX 01 00:55:34
  TRACK 49 AUDIO
    TITLE "0:"
    INDEX 01 00:57:64
  TRACK 50 AUDIO
    TITLE "3:cjc157_2035"
    INDEX 01 00:58:34
  TRACK 51 AUDIO
    TITLE "0:"
    INDEX 01 01:00:12
  TRACK 52 AUDIO
    TITLE "4:cjc157_2036"
    INDEX 01 01:00:59
  TRACK 53 AUDIO
    TITLE "0:"
    INDEX 01 01:02:08
  TRACK 54 AUDIO
    TITLE "5:cjc157_2037"
    INDEX 01 01:02:54
  TRACK 55 AUDIO
    TITLE "0:"
    INDEX 01 01:05:32
  TRACK 56 AUDIO
    TITLE "5:cjc157_2038"
    INDEX 01 01:05:73
  TRACK 57 AUDIO
    TITLE "0:"
    INDEX 01 01:09:03
  TRACK 58 AUDIO
    TITLE "3:cjc157_2039"
    INDEX 01 01:09:46
  TRACK 59 AUDIO
    TITLE "0:"
    INDEX 01 01:11:11
  TRACK 60 AUDIO
    TITLE "4:cjc157_2040"
    INDEX 01 01:11:56
  TRACK 61 AUDIO
    TITLE "0:"
    INDEX 01 01:13:02
  TRACK 62 AUDIO
    TITLE "5:cjc157_2041"
    INDEX 01 01:13:44
  TRACK 63 AUDIO
    TITLE "0:"
    INDEX 01 01:15:46
  TRACK 64 AUDIO
    TITLE "5:cjc157_2042"
    INDEX 01 01:16:16
  TRACK 65 AUDIO
    TITLE "0:"
    INDEX 01 01:18:60
  TRACK 66 AUDIO
    TITLE "3:cjc157_2043"
    INDEX 01 01:19:34
  TRACK 67 AUDIO
    TITLE "0:"
    INDEX 01 01:20:59
  TRACK 68 AUDIO
    TITLE "4:cjc157_2044"
    INDEX 01 01:21:29
  TRACK 69 AUDIO
    TITLE "0:"
    INDEX 01 01:22:27
  TRACK 70 AUDIO
    TITLE "5:cjc157_2045"
    INDEX 01 01:22:74
  TRACK 71 AUDIO
    TITLE "0:"
    INDEX 01 01:25:15
